<?xml version="1.0" standalone="no"?>
<!DOCTYPE svg PUBLIC "-//W3C//DTD SVG 20010904//EN"
 "http://www.w3.org/TR/2001/REC-SVG-20010904/DTD/svg10.dtd">
<svg version="1.0" xmlns="http://www.w3.org/2000/svg"
 width="300.000000pt" height="29.000000pt" viewBox="-10 0 300.000000 29.000000"
 preserveAspectRatio="xMidYMid meet">
<g transform="translate(0.000000,29.000000) scale(0.100000,-0.100000)"
fill="#000000" stroke="none">
<path d="M393 191 c-34 -11 -104 -24 -155 -31 -149 -18 -152 -22 -38 -36 58
-8 145 -25 193 -39 85 -24 94 -25 220 -15 290 21 831 39 1772 57 209 3 364 10
345 14 -19 4 -332 12 -695 18 -565 10 -965 22 -1470 45 -89 4 -122 2 -172 -13z"/>
</g>
</svg>
