<?xml version="1.0" standalone="no"?>
<!DOCTYPE svg PUBLIC "-//W3C//DTD SVG 20010904//EN"
 "http://www.w3.org/TR/2001/REC-SVG-20010904/DTD/svg10.dtd">
<svg version="1.0" xmlns="http://www.w3.org/2000/svg"
 width="300.000000pt" height="30.000000pt" viewBox="40 0 300.000000 30.000000"
 preserveAspectRatio="xMidYMid meet">
<g transform="translate(0.000000,30.000000) scale(0.100000,-0.100000)"
fill="#5d39c6" stroke="none">
<path d="M2715 215 c-23 -10 -836 -36 -1445 -46 -360 -6 -668 -14 -685 -18
-16 -4 251 -13 595 -19 694 -14 1078 -26 1370 -43 272 -16 305 -15 390 10 41
12 121 27 178 33 114 13 114 22 1 33 -42 3 -114 16 -160 27 -79 19 -222 32
-244 23z"/>
</g>
</svg>
